<svg xmlns="http://www.w3.org/2000/svg" width="928.062" height="278.528"><g fill="none" stroke="#65ac4f"><path d="M185.739 214.569c-30.098 19.37 11.005 24.433-23.904 32.342-34.908 7.909-.001-14.374-35.51-18.882-35.507-4.507-7.275 25.79-39.1 9.41-31.825-16.38 9.239-11.011-15.065-37.288-24.303-26.277-22.15 15.08-36.001-17.925-13.851-33.004 14.155-2.497 12.428-38.248-1.727-35.752-26.662-2.687-16.057-36.873s12.449 7.186 34.106-21.31c21.658-28.498-18.697-19.197 11.4-38.568 30.099-19.372 4.918 13.507 39.826 5.598 34.909-7.91-1.984-26.724 33.524-22.217 35.509 4.508-4.915 13.508 26.91 29.888 31.826 16.38 15.658-21.747 39.961 4.53 24.304 26.277-12.447 7.188 1.403 40.193 13.85 33.005 25.973-6.595 27.7 29.157 1.727 35.751-14.155-2.495-24.76 31.69-10.605 34.187 24.135 11.644 2.477 40.142-21.657 28.497-9.24-11.01-39.338 8.36z" stroke-width="9.55449374"/><path d="M82.019 108.594h113.365v61.326H82.019z" stroke-width="5.7329332399999995" stroke-linejoin="round"/><path d="M129.361 137.847L82.02 169.919h113.364l-47.342-32.072" stroke-width="5.7329332399999995" stroke-linecap="round" stroke-linejoin="bevel"/><path d="M195.384 108.594l-50.992 31.513s-2.73 2.022-5.69 1.943c-2.961-.079-5.67-1.943-5.67-1.943l-51.013-31.513" stroke-width="5.7329332399999995" stroke-linecap="round" stroke-linejoin="bevel"/></g><g style="line-height:125%" font-weight="700" font-size="75" font-family="Fira Mono" letter-spacing="0" word-spacing="0" fill="#65ac4f"><path d="M318.368 130.264c0-11.4-8.025-16.95-22.2-16.95h-16.35v51.975h12.3v-17.325h5.7c12.225 0 20.55-5.625 20.55-17.7zm-12.6 0c0 6.15-3.3 8.85-8.775 8.85h-4.875v-17.025h4.275c6.225 0 9.375 2.625 9.375 8.175zM359.513 113.314h-33.75v9h10.725v33.9h-10.725v9.075h33.75v-9.075h-10.725v-33.9h10.725v-9zM372.084 165.289h33.6l1.2-9.75h-22.5v-42.225h-12.3v51.975zM436.255 165.289h14.925v-51.975h-10.425v19.875c0 9.375 1.05 16.95 1.8 21.75l-13.2-41.625H413.98v51.975h10.425v-19.575c0-9.15-1.2-17.775-1.8-22.2l13.65 41.775zM496.9 113.314h-12.375v30c0 9.3-1.05 14.1-6.975 14.1s-6.975-4.8-6.975-14.1v-30H458.2v34.575c0 11.1 6.375 18.675 19.35 18.675 12.9 0 19.35-8.025 19.35-18.675v-34.575zM539.546 113.314h-28.2v9h15.9v24.375c0 7.275-4.05 10.575-9.3 10.575-3.975 0-6.75-.9-10.35-3.3l-4.65 7.575c4.5 3.075 9 4.875 15.675 4.875 13.275 0 20.925-7.725 20.925-19.8v-33.3zM564.267 122.089h20.4l1.275-8.775h-33.975v51.975h33.975v-8.85h-21.675v-13.275h18v-8.55h-18v-12.525zM630.763 113.314h-12.675l-5.475 33.6-5.775-33.6h-12.675l-2.925 51.975h10.575l.375-22.05c.15-8.325-.15-12.9-.75-19.5l6.375 32.7h9.3l5.85-32.7c-.525 6.975-.9 11.1-.675 19.275l.6 22.275h10.8l-2.925-51.975zM663.583 145.789l16.95-32.475h-12.975l-9.9 22.35-9.825-22.35h-13.5l16.95 32.55v19.425h12.3v-19.5zM694.079 158.164c0 4.575 3.675 8.4 8.325 8.4 4.65 0 8.325-3.825 8.325-8.4 0-4.5-3.675-8.325-8.325-8.325-4.65 0-8.325 3.825-8.325 8.325zM764.25 113.314H730.5v9h10.725v33.9H730.5v9.075h33.75v-9.075h-10.725v-33.9h10.725v-9zM796.02 165.289h14.925v-51.975H800.52v19.875c0 9.375 1.05 16.95 1.8 21.75l-13.2-41.625h-15.375v51.975h10.425v-19.575c0-9.15-1.2-17.775-1.8-22.2l13.65 41.775zM835.291 122.089h20.55l1.2-8.775h-34.125v51.975h12.375v-20.625h18.15v-8.85h-18.15v-13.725zM903.062 139.264c0-16.875-7.125-27.3-20.775-27.3-13.65 0-20.775 10.8-20.775 27.3 0 16.875 7.125 27.3 20.775 27.3 13.65 0 20.775-10.8 20.775-27.3zm-12.6 0c0 12.6-2.175 18.3-8.175 18.3-5.775 0-8.175-5.55-8.175-18.3s2.325-18.3 8.175-18.3c5.85 0 8.175 5.55 8.175 18.3z" style="-inkscape-font-specification:'Fira Mono Bold'"/></g></svg>