<svg xmlns="http://www.w3.org/2000/svg" width="383.691" height="385.704"><g fill="none" stroke="#65ac4f"><path d="M271.292 319.95c-50.8 32.694 18.573 41.237-40.345 54.586-58.918 13.349-.001-24.26-59.932-31.868-59.93-7.607-12.279 43.53-65.993 15.883-53.714-27.646 15.593-18.585-25.426-62.935s-37.386 25.452-60.763-30.253c-23.376-55.705 23.891-4.214 20.977-64.555-2.915-60.34-45-4.534-27.101-62.233 17.898-57.698 21.01 12.129 57.564-35.968 36.553-48.097-31.558-32.399 19.241-65.093 50.8-32.695 8.3 22.796 67.217 9.448 58.918-13.349-3.349-45.104 56.581-37.496 59.93 7.607-8.296 22.797 45.418 50.443 53.714 27.646 26.427-36.703 67.446 7.647s-21.01 12.131 2.367 67.836c23.377 55.704 43.837-11.13 46.752 49.21 2.915 60.34-23.892-4.21-41.79 53.488-17.9 57.698 40.734 19.651 4.181 67.748-36.553 48.097-15.595-18.583-66.394 14.112z" stroke-width="16.127891520000002"/><g stroke-width="6"><path d="M96.235 141.089H287.57v103.504H96.235z" stroke-linejoin="round" stroke-width="9.67566"/><path d="M176.139 190.46l-79.902 54.132H287.57l-79.903-54.131" stroke-linecap="round" stroke-linejoin="bevel" stroke-width="9.67566"/><path d="M287.57 141.089l-86.063 53.187s-4.608 3.412-9.604 3.279c-4.997-.134-9.57-3.28-9.57-3.28L96.236 141.09" stroke-linecap="round" stroke-linejoin="bevel" stroke-width="9.67566"/></g></g></svg>