<?xml version="1.0" standalone="no"?>
<!DOCTYPE svg PUBLIC "-//W3C//DTD SVG 20010904//EN"
 "http://www.w3.org/TR/2001/REC-SVG-20010904/DTD/svg10.dtd">
<svg version="1.0" xmlns="http://www.w3.org/2000/svg"
 width="207.000000pt" height="207.000000pt" viewBox="0 0 207.000000 207.000000"
 preserveAspectRatio="xMidYMid meet">
<metadata>
Created by potrace 1.11, written by Peter Selinger 2001-2013
</metadata>
<g transform="translate(0.000000,207.000000) scale(0.100000,-0.100000)"
fill="#000000" stroke="none">
<path d="M994 2056 c-36 -16 -44 -32 -44 -91 0 -68 -48 -99 -175 -112 -58 -6
-63 -3 -98 62 -35 63 -69 67 -164 20 -45 -22 -99 -60 -131 -91 -50 -48 -54
-56 -48 -86 3 -18 18 -44 31 -58 38 -40 33 -77 -20 -149 -59 -80 -81 -90 -146
-67 -60 22 -91 16 -119 -24 -27 -38 -69 -160 -76 -225 -6 -44 -3 -55 17 -79
17 -19 37 -29 67 -33 58 -8 74 -34 80 -128 6 -101 -6 -128 -65 -146 -27 -8
-54 -25 -66 -40 -17 -24 -18 -32 -8 -80 18 -85 86 -216 121 -234 38 -20 48
-19 93 5 20 11 46 20 58 20 26 0 133 -101 149 -141 11 -26 10 -33 -14 -69 -53
-80 -24 -135 105 -199 142 -71 184 -69 224 14 18 40 32 56 51 61 38 10 149 -3
183 -20 32 -17 41 -34 41 -80 0 -38 29 -73 67 -82 37 -10 186 20 242 48 25 13
53 35 61 50 13 24 13 32 -4 77 -17 48 -17 51 1 75 26 35 119 94 159 102 30 5
39 1 74 -30 26 -23 50 -36 68 -36 40 0 101 55 162 146 72 108 67 154 -19 199
-27 14 -31 21 -31 58 0 56 24 137 51 171 18 23 27 26 76 25 47 -2 58 1 81 25
26 26 27 30 27 139 -1 181 -27 224 -128 212 -44 -6 -57 -4 -72 11 -29 30 -75
136 -75 176 0 31 5 40 35 58 86 53 70 124 -59 252 -91 91 -137 96 -199 22 -16
-19 -35 -34 -42 -34 -34 0 -127 44 -166 79 -41 36 -42 38 -31 71 37 105 -23
152 -210 165 -61 4 -91 2 -114 -9z m222 -92 c20 -5 21 -11 17 -64 -5 -48 -2
-64 16 -93 40 -65 180 -137 266 -137 39 0 52 6 88 40 l43 39 55 -57 c89 -92
87 -86 41 -129 -27 -26 -42 -50 -47 -76 -15 -78 52 -243 118 -291 22 -16 42
-21 87 -20 69 1 70 1 70 -124 l0 -84 -30 7 c-99 22 -194 -98 -207 -261 -7 -73
12 -116 63 -146 19 -11 34 -24 34 -30 0 -11 -47 -80 -88 -128 l-30 -35 -29 27
c-72 68 -153 58 -285 -39 -66 -48 -91 -91 -86 -151 3 -26 8 -55 12 -64 6 -14
-2 -20 -46 -33 -29 -8 -76 -18 -104 -21 l-51 -6 -5 47 c-10 84 -76 126 -222
141 -82 8 -137 -8 -175 -51 -17 -20 -31 -45 -31 -57 0 -18 -4 -20 -32 -14 -41
8 -158 74 -158 88 0 6 7 20 16 30 10 10 19 40 22 66 5 62 -19 112 -90 184 -85
87 -149 106 -220 68 -29 -15 -38 -17 -47 -6 -16 19 -57 116 -65 152 -7 30 -5
32 30 39 78 14 124 112 109 234 -14 120 -48 174 -122 193 -30 7 -43 16 -43 27
0 23 29 120 46 152 13 27 13 27 56 11 69 -24 111 -11 178 56 31 31 68 82 83
111 39 80 35 132 -14 187 -19 20 -19 21 3 41 25 24 137 93 150 93 4 0 14 -15
22 -34 16 -39 46 -63 98 -77 82 -22 258 32 301 92 12 16 19 44 19 74 l1 48 81
-6 c45 -4 91 -9 102 -13z"/>
<path d="M495 1327 c-3 -7 -4 -143 -3 -302 l3 -290 535 0 535 0 0 300 0 300
-533 3 c-423 2 -534 0 -537 -11z m925 -60 c-136 -90 -370 -227 -389 -227 -21
0 -365 203 -401 236 -12 12 51 14 405 14 l420 0 -35 -23z m-699 -109 c93 -57
168 -106 169 -110 0 -6 -336 -238 -345 -238 -3 0 -5 101 -5 225 0 124 3 225 7
225 3 0 82 -46 174 -102z m799 -124 c0 -177 -3 -224 -12 -218 -7 4 -87 57
-177 117 -118 79 -160 112 -152 120 14 14 324 206 334 207 4 0 7 -102 7 -226z
m-529 -38 c34 -14 85 -11 95 5 12 21 48 3 197 -98 l159 -108 -206 -3 c-113 -1
-299 -1 -412 0 l-206 3 159 107 c87 59 163 108 169 108 6 0 27 -6 45 -14z"/>
</g>
</svg>
