<?xml version="1.0" encoding="UTF-8" standalone="no"?>
<!-- Created with Inkscape (http://www.inkscape.org/) -->

<svg
   xmlns:dc="http://purl.org/dc/elements/1.1/"
   xmlns:cc="http://creativecommons.org/ns#"
   xmlns:rdf="http://www.w3.org/1999/02/22-rdf-syntax-ns#"
   xmlns:svg="http://www.w3.org/2000/svg"
   xmlns="http://www.w3.org/2000/svg"
   xmlns:sodipodi="http://sodipodi.sourceforge.net/DTD/sodipodi-0.dtd"
   xmlns:inkscape="http://www.inkscape.org/namespaces/inkscape"
   version="1.1"
   width="928.06183"
   height="278.52795"
   id="svg2"
   inkscape:version="0.91 r13725"
   sodipodi:docname="banner.svg">
  <sodipodi:namedview
     pagecolor="#ffffff"
     bordercolor="#666666"
     borderopacity="1"
     objecttolerance="10"
     gridtolerance="10"
     guidetolerance="10"
     inkscape:pageopacity="0"
     inkscape:pageshadow="2"
     inkscape:window-width="1920"
     inkscape:window-height="1029"
     id="namedview11"
     showgrid="false"
     fit-margin-top="25"
     fit-margin-left="25"
     fit-margin-right="25"
     fit-margin-bottom="25"
     inkscape:zoom="1.1125147"
     inkscape:cx="403.86105"
     inkscape:cy="197.62278"
     inkscape:window-x="0"
     inkscape:window-y="25"
     inkscape:window-maximized="1"
     inkscape:current-layer="g8082" />
  <defs
     id="defs4" />
  <metadata
     id="metadata7">
    <rdf:RDF>
      <cc:Work
         rdf:about="">
        <dc:format>image/svg+xml</dc:format>
        <dc:type
           rdf:resource="http://purl.org/dc/dcmitype/StillImage" />
        <dc:title></dc:title>
      </cc:Work>
    </rdf:RDF>
  </metadata>
  <g
     id="g8082"
     transform="translate(-116.73729,-53.588246)">
    <g
       id="g8093"
       transform="matrix(0.59249491,0,0,0.59249491,141.73729,78.588262)">
      <path
         inkscape:connector-curvature="0"
         style="fill:none;stroke:#65ac4f;stroke-width:16.12605286;stroke-opacity:1"
         id="path3818"
         d="m 271.2917,319.94958 c -50.79906,32.69457 18.57324,41.23781 -40.34451,54.58635 -58.91771,13.34859 -0.002,-24.26001 -59.9317,-31.86752 -59.93004,-7.60752 -12.27924,43.52863 -65.99313,15.88264 C 51.308462,330.90505 120.61511,339.9657 79.596044,295.61574 38.577022,251.26576 42.209931,321.06768 18.833249,265.36299 -4.5434804,209.65832 42.724394,261.1486 39.809601,200.80804 36.894777,140.46744 -5.1900192,196.274 12.708664,138.57547 30.607339,80.876971 33.719321,150.70401 70.272628,102.60687 106.82594,54.509683 38.715329,70.20842 89.514402,37.51381 c 50.799068,-32.6945724 8.298996,22.7964 67.216738,9.447857 58.91771,-13.34855 -3.34895,-45.1033048 56.58105,-37.4957953 59.93004,7.6075173 -8.29582,22.7975633 45.41808,50.4435583 53.71386,27.645987 26.42636,-36.703809 67.44542,7.646182 41.01906,44.349948 -21.00895,12.131464 2.36778,67.836128 23.37668,55.70469 43.83652,-11.13015 46.75131,49.21041 2.91479,60.3406 -23.89175,-4.21105 -41.79043,53.48748 -17.89868,57.69854 40.73506,19.65137 4.18175,67.74852 -36.55331,48.09718 -15.59533,-18.58314 -66.3944,14.11143 z" />
      <path
         d="m 96.234823,141.08879 191.335367,0 0,103.50371 -191.335367,0 z"
         id="path3822"
         style="fill:none;stroke:#65ac4f;stroke-width:9.67563152;stroke-linejoin:round;stroke-opacity:1"
         inkscape:connector-curvature="0" />
      <path
         d="m 176.13901,190.46065 -79.90251,54.13124 191.33401,0 -79.90249,-54.13124"
         id="path3824"
         style="fill:none;stroke:#65ac4f;stroke-width:9.67563152;stroke-linecap:round;stroke-linejoin:bevel;stroke-opacity:1"
         inkscape:connector-curvature="0" />
      <path
         d="m 287.57019,141.08879 -86.06345,53.18686 c 0,0 -4.6077,3.412 -9.60419,3.27886 -4.9965,-0.13314 -9.56888,-3.27886 -9.56888,-3.27886 L 96.234823,141.08879"
         id="path3826"
         style="fill:none;stroke:#65ac4f;stroke-width:9.67563152;stroke-linecap:round;stroke-linejoin:bevel;stroke-opacity:1"
         inkscape:connector-curvature="0" />
    </g>
    <g
       style="font-style:normal;font-weight:normal;font-size:15px;line-height:125%;font-family:sans-serif;letter-spacing:0px;word-spacing:0px;fill:#65ac4f;fill-opacity:1;stroke:none;stroke-width:1px;stroke-linecap:butt;stroke-linejoin:miter;stroke-opacity:1"
       id="text8070"
       transform="translate(0,9.3501721)">
      <path
         d="m 435.10494,174.50205 c 0,-11.4 -8.025,-16.95 -22.2,-16.95 l -16.35,0 0,51.975 12.3,0 0,-17.325 5.7,0 c 12.225,0 20.55,-5.625 20.55,-17.7 z m -12.6,0 c 0,6.15 -3.3,8.85 -8.775,8.85 l -4.875,0 0,-17.025 4.275,0 c 6.225,0 9.375,2.625 9.375,8.175 z"
         style="font-style:normal;font-variant:normal;font-weight:bold;font-stretch:normal;font-size:75px;font-family:'Fira Mono';-inkscape-font-specification:'Fira Mono Bold';fill:#65ac4f;fill-opacity:1"
         id="path8072"
         inkscape:connector-curvature="0" />
      <path
         d="m 476.25064,157.55205 -33.75,0 0,9 10.725,0 0,33.9 -10.725,0 0,9.075 33.75,0 0,-9.075 -10.725,0 0,-33.9 10.725,0 0,-9 z"
         style="font-style:normal;font-variant:normal;font-weight:bold;font-stretch:normal;font-size:75px;font-family:'Fira Mono';-inkscape-font-specification:'Fira Mono Bold';fill:#65ac4f;fill-opacity:1"
         id="path8074"
         inkscape:connector-curvature="0" />
      <path
         d="m 488.82134,209.52705 33.6,0 1.2,-9.75 -22.5,0 0,-42.225 -12.3,0 0,51.975 z"
         style="font-style:normal;font-variant:normal;font-weight:bold;font-stretch:normal;font-size:75px;font-family:'Fira Mono';-inkscape-font-specification:'Fira Mono Bold';fill:#65ac4f;fill-opacity:1"
         id="path8076"
         inkscape:connector-curvature="0" />
      <path
         d="m 552.99205,209.52705 14.925,0 0,-51.975 -10.425,0 0,19.875 c 0,9.375 1.05,16.95 1.8,21.75 l -13.2,-41.625 -15.375,0 0,51.975 10.425,0 0,-19.575 c 0,-9.15 -1.2,-17.775 -1.8,-22.2 l 13.65,41.775 z"
         style="font-style:normal;font-variant:normal;font-weight:bold;font-stretch:normal;font-size:75px;font-family:'Fira Mono';-inkscape-font-specification:'Fira Mono Bold';fill:#65ac4f;fill-opacity:1"
         id="path8078"
         inkscape:connector-curvature="0" />
      <path
         d="m 613.63775,157.55205 -12.375,0 0,30 c 0,9.3 -1.05,14.1 -6.975,14.1 -5.925,0 -6.975,-4.8 -6.975,-14.1 l 0,-30 -12.375,0 0,34.575 c 0,11.1 6.375,18.675 19.35,18.675 12.9,0 19.35,-8.025 19.35,-18.675 l 0,-34.575 z"
         style="font-style:normal;font-variant:normal;font-weight:bold;font-stretch:normal;font-size:75px;font-family:'Fira Mono';-inkscape-font-specification:'Fira Mono Bold';fill:#65ac4f;fill-opacity:1"
         id="path8080"
         inkscape:connector-curvature="0" />
      <path
         d="m 656.28345,157.55205 -28.2,0 0,9 15.9,0 0,24.375 c 0,7.275 -4.05,10.575 -9.3,10.575 -3.975,0 -6.75,-0.9 -10.35,-3.3 l -4.65,7.575 c 4.5,3.075 9,4.875 15.675,4.875 13.275,0 20.925,-7.725 20.925,-19.8 l 0,-33.3 z"
         style="font-style:normal;font-variant:normal;font-weight:bold;font-stretch:normal;font-size:75px;font-family:'Fira Mono';-inkscape-font-specification:'Fira Mono Bold';fill:#65ac4f;fill-opacity:1"
         id="path8082"
         inkscape:connector-curvature="0" />
      <path
         d="m 681.00416,166.32705 20.4,0 1.275,-8.775 -33.975,0 0,51.975 33.975,0 0,-8.85 -21.675,0 0,-13.275 18,0 0,-8.55 -18,0 0,-12.525 z"
         style="font-style:normal;font-variant:normal;font-weight:bold;font-stretch:normal;font-size:75px;font-family:'Fira Mono';-inkscape-font-specification:'Fira Mono Bold';fill:#65ac4f;fill-opacity:1"
         id="path8084"
         inkscape:connector-curvature="0" />
      <path
         d="m 747.49986,157.55205 -12.675,0 -5.475,33.6 -5.775,-33.6 -12.675,0 -2.925,51.975 10.575,0 0.375,-22.05 c 0.15,-8.325 -0.15,-12.9 -0.75,-19.5 l 6.375,32.7 9.3,0 5.85,-32.7 c -0.525,6.975 -0.9,11.1 -0.675,19.275 l 0.6,22.275 10.8,0 -2.925,-51.975 z"
         style="font-style:normal;font-variant:normal;font-weight:bold;font-stretch:normal;font-size:75px;font-family:'Fira Mono';-inkscape-font-specification:'Fira Mono Bold';fill:#65ac4f;fill-opacity:1"
         id="path8086"
         inkscape:connector-curvature="0" />
      <path
         d="m 780.32056,190.02705 16.95,-32.475 -12.975,0 -9.9,22.35 -9.825,-22.35 -13.5,0 16.95,32.55 0,19.425 12.3,0 0,-19.5 z"
         style="font-style:normal;font-variant:normal;font-weight:bold;font-stretch:normal;font-size:75px;font-family:'Fira Mono';-inkscape-font-specification:'Fira Mono Bold';fill:#65ac4f;fill-opacity:1"
         id="path8088"
         inkscape:connector-curvature="0" />
      <path
         d="m 810.81627,202.40205 c 0,4.575 3.675,8.4 8.325,8.4 4.65,0 8.325,-3.825 8.325,-8.4 0,-4.5 -3.675,-8.325 -8.325,-8.325 -4.65,0 -8.325,3.825 -8.325,8.325 z"
         style="font-style:normal;font-variant:normal;font-weight:bold;font-stretch:normal;font-size:75px;font-family:'Fira Mono';-inkscape-font-specification:'Fira Mono Bold';fill:#65ac4f;fill-opacity:1"
         id="path8090"
         inkscape:connector-curvature="0" />
      <path
         d="m 880.98697,157.55205 -33.75,0 0,9 10.725,0 0,33.9 -10.725,0 0,9.075 33.75,0 0,-9.075 -10.725,0 0,-33.9 10.725,0 0,-9 z"
         style="font-style:normal;font-variant:normal;font-weight:bold;font-stretch:normal;font-size:75px;font-family:'Fira Mono';-inkscape-font-specification:'Fira Mono Bold';fill:#65ac4f;fill-opacity:1"
         id="path8092"
         inkscape:connector-curvature="0" />
      <path
         d="m 912.75767,209.52705 14.925,0 0,-51.975 -10.425,0 0,19.875 c 0,9.375 1.05,16.95 1.8,21.75 l -13.2,-41.625 -15.375,0 0,51.975 10.425,0 0,-19.575 c 0,-9.15 -1.2,-17.775 -1.8,-22.2 l 13.65,41.775 z"
         style="font-style:normal;font-variant:normal;font-weight:bold;font-stretch:normal;font-size:75px;font-family:'Fira Mono';-inkscape-font-specification:'Fira Mono Bold';fill:#65ac4f;fill-opacity:1"
         id="path8094"
         inkscape:connector-curvature="0" />
      <path
         d="m 952.02838,166.32705 20.55,0 1.2,-8.775 -34.125,0 0,51.975 12.375,0 0,-20.625 18.15,0 0,-8.85 -18.15,0 0,-13.725 z"
         style="font-style:normal;font-variant:normal;font-weight:bold;font-stretch:normal;font-size:75px;font-family:'Fira Mono';-inkscape-font-specification:'Fira Mono Bold';fill:#65ac4f;fill-opacity:1"
         id="path8096"
         inkscape:connector-curvature="0" />
      <path
         d="m 1019.7991,183.50205 c 0,-16.875 -7.125,-27.3 -20.77502,-27.3 -13.65,0 -20.775,10.8 -20.775,27.3 0,16.875 7.125,27.3 20.775,27.3 13.65002,0 20.77502,-10.8 20.77502,-27.3 z m -12.6,0 c 0,12.6 -2.175,18.3 -8.17502,18.3 -5.775,0 -8.175,-5.55 -8.175,-18.3 0,-12.75 2.325,-18.3 8.175,-18.3 5.85002,0 8.17502,5.55 8.17502,18.3 z"
         style="font-style:normal;font-variant:normal;font-weight:bold;font-stretch:normal;font-size:75px;font-family:'Fira Mono';-inkscape-font-specification:'Fira Mono Bold';fill:#65ac4f;fill-opacity:1"
         id="path8098"
         inkscape:connector-curvature="0" />
    </g>
  </g>
</svg>
